# xmcd
#
# Track frame offsets: 
#        150
#        12392
#        32531
#        47554
#        60538
#        75003
#        90839
#        105757
#        118396
#        135041
#        154101
#
# Disc length: 2250 seconds
#
# Revision: 0
# Processed by: cddbd v1.5.2PL0 Copyright (c) Steve Scherf et al.
# Submitted via: ExactAudioCopy v0.99pb4
#
DISCID=6908c80b
DTITLE=Gene Watson - A Taste Of The Truth
DYEAR=2009
DGENRE=Country
TTITLE0=Speakin' Of The Angel
TTITLE1=Taste Of The Truth
TTITLE2=We've Got A Pulse - With Trace Adkins
TTITLE3=Til A Better Memory Comes Along
TTITLE4=It's My Lie
TTITLE5=Staying Together - With Rhonda Vincent
TTITLE6=Three Minutes At A Time
TTITLE7=Wrong Way To Find Mr Right
TTITLE8=Use Me Again
TTITLE9=Still They Call Me Love
TTITLE10=I Know An Ending
EXTD=
EXTT0=
EXTT1=
EXTT2=
EXTT3=
EXTT4=
EXTT5=
EXTT6=
EXTT7=
EXTT8=
EXTT9=
EXTT10=
PLAYORDER=
